HIERARCHY
ROOT Hips
{
    OFFSET   0.000000   0.000000   0.000000
    CHANNELS 6 Xposition Yposition Zposition Zrotation Xrotation Yrotation
    JOINT Chest
    {
        OFFSET   0.000000   8.007230   0.000000
        CHANNELS 3 Zrotation Xrotation Yrotation
        JOINT Chest2
        {
            OFFSET   0.000000  22.077100   0.000000
            CHANNELS 3 Zrotation Xrotation Yrotation
            JOINT Neck
            {
                OFFSET   0.000000  23.255100   0.000000
                CHANNELS 3 Zrotation Xrotation Yrotation
                JOINT Head
                {
                    OFFSET   0.000000  14.370100   1.956600
                    CHANNELS 3 Zrotation Xrotation Yrotation
                    End Site
                    {
                        OFFSET   0.000000  19.566000   0.000000
                    }
                }
            }
            JOINT LeftCollar
            {
                OFFSET   3.911900  19.017000  -0.467063
                CHANNELS 3 Zrotation Xrotation Yrotation
                JOINT LeftShoulder
                {
                    OFFSET  10.383700   0.000000   0.000000
                    CHANNELS 3 Zrotation Xrotation Yrotation
                    JOINT LeftElbow
                    {
                        OFFSET  26.662100   0.001193   0.000980
                        CHANNELS 3 Zrotation Xrotation Yrotation
                        JOINT LeftWrist
                        {
                            OFFSET  28.869000  -0.000059  -0.000082
                            CHANNELS 3 Zrotation Xrotation Yrotation
                            JOINT LeftFinger0
                            {
                                OFFSET   2.044650  -2.323450   3.252850
                                CHANNELS 3 Zrotation Xrotation Yrotation
                                JOINT LeftFinger01
                                {
                                    OFFSET   3.088130   0.000000   0.000000
                                    CHANNELS 3 Zrotation Xrotation Yrotation
                                    JOINT LeftFinger02
                                    {
                                        OFFSET   2.639460   0.000000   0.000000
                                        CHANNELS 3 Zrotation Xrotation Yrotation
                                        End Site
                                        {
                                            OFFSET   2.582190   0.000000   0.000000
                                        }
                                    }
                                }
                            }
                            JOINT LeftFinger1
                            {
                                OFFSET   8.364480   0.000000   3.252850
                                CHANNELS 3 Zrotation Xrotation Yrotation
                                JOINT LeftFinger11
                                {
                                    OFFSET   4.646930   0.000000   0.000000
                                    CHANNELS 3 Zrotation Xrotation Yrotation
                                    JOINT LeftFinger12
                                    {
                                        OFFSET   2.323470   0.000000   0.000000
                                        CHANNELS 3 Zrotation Xrotation Yrotation
                                        End Site
                                        {
                                            OFFSET   2.273050   0.000000   0.000000
                                        }
                                    }
                                }
                            }
                            JOINT LeftFinger2
                            {
                                OFFSET   8.364490   0.000016   1.078090
                                CHANNELS 3 Zrotation Xrotation Yrotation
                                JOINT LeftFinger21
                                {
                                    OFFSET   5.111610   0.000000   0.000000
                                    CHANNELS 3 Zrotation Xrotation Yrotation
                                    JOINT LeftFinger22
                                    {
                                        OFFSET   2.788150   0.000016   0.000000
                                        CHANNELS 3 Zrotation Xrotation Yrotation
                                        End Site
                                        {
                                            OFFSET   2.727660   0.000000   0.000000
                                        }
                                    }
                                }
                            }
                            JOINT LeftFinger3
                            {
                                OFFSET   7.899780   0.000015  -1.078090
                                CHANNELS 3 Zrotation Xrotation Yrotation
                                JOINT LeftFinger31
                                {
                                    OFFSET   4.646930   0.000000   0.000000
                                    CHANNELS 3 Zrotation Xrotation Yrotation
                                    JOINT LeftFinger32
                                    {
                                        OFFSET   2.323470   0.000000   0.000000
                                        CHANNELS 3 Zrotation Xrotation Yrotation
                                        End Site
                                        {
                                            OFFSET   2.273050   0.000000   0.000000
                                        }
                                    }
                                }
                            }
                            JOINT LeftFinger4
                            {
                                OFFSET   7.435090   0.000000  -3.252850
                                CHANNELS 3 Zrotation Xrotation Yrotation
                                JOINT LeftFinger41
                                {
                                    OFFSET   3.717550   0.000000   0.000000
                                    CHANNELS 3 Zrotation Xrotation Yrotation
                                    JOINT LeftFinger42
                                    {
                                        OFFSET   1.858770   0.000000   0.000000
                                        CHANNELS 3 Zrotation Xrotation Yrotation
                                        End Site
                                        {
                                            OFFSET   1.818440   0.000000   0.000000
                                        }
                                    }
                                }
                            }
                        }
                    }
                }
            }
            JOINT RightCollar
            {
                OFFSET  -3.911910  19.017000  -0.467062
                CHANNELS 3 Zrotation Xrotation Yrotation
                JOINT RightShoulder
                {
                    OFFSET -10.383700   0.000014   0.000000
                    CHANNELS 3 Zrotation Xrotation Yrotation
                    JOINT RightElbow
                    {
                        OFFSET -26.662100   0.001225   0.001091
                        CHANNELS 3 Zrotation Xrotation Yrotation
                        JOINT RightWrist
                        {
                            OFFSET -28.869000  -0.000020  -0.000085
                            CHANNELS 3 Zrotation Xrotation Yrotation
                            JOINT RightFinger0
                            {
                                OFFSET  -2.044650  -2.323490   3.252850
                                CHANNELS 3 Zrotation Xrotation Yrotation
                                JOINT RightFinger01
                                {
                                    OFFSET  -3.088130   0.000000   0.000000
                                    CHANNELS 3 Zrotation Xrotation Yrotation
                                    JOINT RightFinger02
                                    {
                                        OFFSET  -2.639460   0.000000   0.000000
                                        CHANNELS 3 Zrotation Xrotation Yrotation
                                        End Site
                                        {
                                            OFFSET  -2.582190   0.000000   0.000000
                                        }
                                    }
                                }
                            }
                            JOINT RightFinger1
                            {
                                OFFSET  -8.364480   0.000000   3.252850
                                CHANNELS 3 Zrotation Xrotation Yrotation
                                JOINT RightFinger11
                                {
                                    OFFSET  -4.646930   0.000000   0.000000
                                    CHANNELS 3 Zrotation Xrotation Yrotation
                                    JOINT RightFinger12
                                    {
                                        OFFSET  -2.323470   0.000000   0.000000
                                        CHANNELS 3 Zrotation Xrotation Yrotation
                                        End Site
                                        {
                                            OFFSET  -2.273050   0.000000   0.000000
                                        }
                                    }
                                }
                            }
                            JOINT RightFinger2
                            {
                                OFFSET  -8.364480   0.000000   1.078090
                                CHANNELS 3 Zrotation Xrotation Yrotation
                                JOINT RightFinger21
                                {
                                    OFFSET  -5.111620   0.000000   0.000000
                                    CHANNELS 3 Zrotation Xrotation Yrotation
                                    JOINT RightFinger22
                                    {
                                        OFFSET  -2.788160   0.000000   0.000000
                                        CHANNELS 3 Zrotation Xrotation Yrotation
                                        End Site
                                        {
                                            OFFSET  -2.727660   0.000000   0.000000
                                        }
                                    }
                                }
                            }
                            JOINT RightFinger3
                            {
                                OFFSET  -7.899780   0.000000  -1.078090
                                CHANNELS 3 Zrotation Xrotation Yrotation
                                JOINT RightFinger31
                                {
                                    OFFSET  -4.646930   0.000000   0.000000
                                    CHANNELS 3 Zrotation Xrotation Yrotation
                                    JOINT RightFinger32
                                    {
                                        OFFSET  -2.323470   0.000000   0.000000
                                        CHANNELS 3 Zrotation Xrotation Yrotation
                                        End Site
                                        {
                                            OFFSET  -2.273050   0.000000   0.000000
                                        }
                                    }
                                }
                            }
                            JOINT RightFinger4
                            {
                                OFFSET  -7.435090   0.000000  -3.252850
                                CHANNELS 3 Zrotation Xrotation Yrotation
                                JOINT RightFinger41
                                {
                                    OFFSET  -3.717550   0.000000   0.000000
                                    CHANNELS 3 Zrotation Xrotation Yrotation
                                    JOINT RightFinger42
                                    {
                                        OFFSET  -1.858760   0.000000   0.000000
                                        CHANNELS 3 Zrotation Xrotation Yrotation
                                        End Site
                                        {
                                            OFFSET  -1.818440   0.000000   0.000000
                                        }
                                    }
                                }
                            }
                        }
                    }
                }
            }
        }
    }
    JOINT LeftHip
    {
        OFFSET   9.783030   0.000000   0.000000
        CHANNELS 3 Zrotation Xrotation Yrotation
        JOINT LeftKnee
        {
            OFFSET   0.000063 -41.789100   0.000608
            CHANNELS 3 Zrotation Xrotation Yrotation
            JOINT LeftAnkle
            {
                OFFSET   0.000048 -41.133200  -0.000184
                CHANNELS 3 Zrotation Xrotation Yrotation
                JOINT LeftToe
                {
                    OFFSET   0.000000  -6.358960  14.674500
                    CHANNELS 3 Zrotation Xrotation Yrotation
                    End Site
                    {
                        OFFSET   0.000000   0.000000   3.913200
                    }
                }
            }
        }
    }
    JOINT RightHip
    {
        OFFSET  -9.783030   0.000000   0.000000
        CHANNELS 3 Zrotation Xrotation Yrotation
        JOINT RightKnee
        {
            OFFSET   0.000071 -41.789100   0.001239
            CHANNELS 3 Zrotation Xrotation Yrotation
            JOINT RightAnkle
            {
                OFFSET   0.000037 -41.133200  -0.000166
                CHANNELS 3 Zrotation Xrotation Yrotation
                JOINT RightToe
                {
                    OFFSET   0.000000  -6.358960  14.674500
                    CHANNELS 3 Zrotation Xrotation Yrotation
                    End Site
                    {
                        OFFSET   0.000000   0.000000   3.913200
                    }
                }
            }
        }
    }
}
MOTION
Frames: 4
Frame Time:   0.016667
  3.143670  88.804400   0.673996   0.363053 -25.833700   4.950430  -0.493915  12.671000   2.453330  -1.621630  25.306900   5.221030  -5.359720  -3.392960  -0.318139  -8.888480  -6.699930  28.108900  -5.313450  -2.798460   2.465290 -68.992300  31.407300  -6.945200  -1.630540 -11.928500 -19.169000  17.704300 -12.441700   7.002770  39.500300  33.939900 -59.427500 -33.189500  -0.003780  -0.002392 -11.594800   0.000000  -0.003073 -34.002100   8.106060 -11.807100 -28.506700   0.008822  -0.000927 -19.954700   0.000326  -0.009778 -28.901900   1.375060  -2.489370 -43.426500   0.007251  -0.001592 -28.922000   0.002942  -0.004690 -28.742200   1.368410  -2.493300 -40.968700  -0.000365  -0.001705 -27.285200   0.007678  -0.010499 -33.701100   0.530540  -0.795402 -50.557300  -0.000157  -0.000649 -33.671200   0.000286  -0.010566   7.966540  -2.403550  12.417100  48.020800  -2.001010  45.326500 -24.364800 -52.041700 101.432000  -2.866450 -56.603400  14.331100 -76.048900  51.988600 100.122000  22.064700   0.054048  -0.021841   6.032350   0.030898   0.023225  15.172000   5.182120  18.229000  13.048900   0.019395   0.041699   9.134250   0.018165   0.026602  11.596800   1.987640   9.936710  11.791400   0.011909   0.094493   7.853050   0.017494   0.061071   7.157330   0.602730   6.015770   7.276100  -0.015665   0.063483   4.845870  -0.006593   0.043088  13.229600   1.397020   6.029020  19.956300   0.001105   0.053384  13.290900   0.008702   0.034645  -0.823278  27.727200   2.701380  -0.181208  -0.049798   2.713830   0.579760  -3.409340  -0.014071  -0.000000   0.000000  -0.000000   0.747080  19.917200  -2.823600  -3.023220  19.711900 -11.890800   3.531560 -13.607400  -3.983210   0.000000   0.000000  -0.000000
  3.277900  88.767700   0.676005   0.172529 -25.799400   4.480970  -0.487803  12.600300   2.465180  -1.606530  25.165800   5.240850  -5.330070  -3.237170  -0.301887  -8.835250  -6.396200  28.132400  -5.324870  -2.799840   2.386640 -69.096800  31.443900  -6.949190  -1.583980 -12.031000 -19.082300  17.681400 -12.599300   7.059120  39.523300  34.053200 -59.540200 -33.240600  -0.004003  -0.002538 -11.620300  -0.000029  -0.003089 -34.030300   8.038050 -11.694200 -28.511300   0.008840  -0.000932 -19.957900   0.000314  -0.009777 -28.903500   1.315230  -2.380820 -43.456600   0.007577  -0.001593 -28.942000   0.002922  -0.004700 -28.746000   1.308910  -2.384580 -40.980300  -0.000388  -0.001713 -27.292900   0.007695  -0.010500 -33.737400   0.522539  -0.781943 -50.611900  -0.000173  -0.000666 -33.707500   0.000276  -0.010612   7.998750  -2.474860  12.348600  47.154500  -1.312400  46.591000 -24.787900 -53.456000 100.192000 -28.223600 -51.022000  -4.107540 -70.236900  51.263600  96.998500  23.165500   0.030359  -0.023184   6.582750   0.016219   0.011035  15.989700   5.113100  17.244300  13.709000   0.007460   0.033754   9.596380   0.008367   0.022503  12.853700   2.426060  10.573200  13.091300   0.008671   0.079036   8.718770   0.012952   0.051213   8.082550   1.192080   8.564440   8.241370  -0.005741   0.044699   5.488740  -0.000798   0.029979  13.911900   1.838940   7.115310  21.015800   0.010881   0.018904  13.996500   0.010245   0.010396  -0.897702  27.734900   2.783390  -0.276320  -0.030541   2.909920   0.657966  -3.507680   0.163219  -0.000000   0.000000  -0.000000   0.694695  19.652600  -2.658030  -3.134940  20.067900 -11.602300   3.572300 -13.695600  -3.956160  -0.000000   0.000000   0.000000
  3.396740  88.743000   0.684438  -0.033066 -25.775200   3.983240  -0.479856  12.540600   2.499900  -1.595410  25.046100   5.308630  -5.298280  -3.088070  -0.286292  -8.772770  -6.102230  28.121200  -5.338120  -2.808630   2.235680 -69.163700  31.610800  -6.970600  -1.542230 -12.228600 -18.879700  17.594500 -12.650500   7.119970  39.614000  34.219700 -59.695200 -33.260400  -0.004229  -0.002688 -11.630200  -0.000071  -0.003104 -34.031600   7.994740 -11.636700 -28.512000   0.008860  -0.000937 -19.958400   0.000302  -0.009777 -28.884200   1.283320  -2.324420 -43.460900   0.007912  -0.001595 -28.944900   0.002903  -0.004711 -28.745700   1.277720  -2.327750 -40.982000  -0.000411  -0.001723 -27.294000   0.007712  -0.010501 -33.742600   0.521396  -0.780020 -50.619700  -0.000186  -0.000682 -33.712700   0.000265  -0.010659   8.023660  -2.603560  12.221700  46.182200  -0.588197  47.648000 -25.985600 -53.925600  97.633800 -42.747300 -42.973900 -12.209000 -60.701000  49.104200  90.786000  25.071900  -0.006822  -0.032581   7.535930  -0.007259  -0.014029  16.395700   4.911800  16.220800  13.981800   0.000000   0.017989   9.787320   0.002212   0.012407  14.037400   2.828070  11.210400  14.329000   0.005433   0.045843   9.543070   0.008411   0.029450   8.980440   1.591090  10.209700   9.172740   0.012145   0.010005   6.109050   0.008962   0.005620  14.537600   2.074390   7.618250  21.987500   0.024611  -0.024262  14.643700   0.011788  -0.020540  -0.963287  27.746600   2.834490  -0.368092   0.004345   3.114970   0.737451  -3.614850   0.377833  -0.000000   0.000000   0.000000   0.649508  19.422600  -2.500010  -3.251320  20.379000 -11.300100   3.612500 -13.768500  -3.912710   0.000000   0.000000  -0.000000
  3.496040  88.731100   0.704719  -0.254840 -25.763500   3.454280  -0.472432  12.493200   2.556870  -1.590250  24.948400   5.422960  -5.258070  -2.969920  -0.273445  -8.700290  -5.873750  28.020400  -5.367290  -2.839250   2.068250 -69.097600  31.971000  -7.118850  -1.498350 -12.489500 -18.587200  17.458000 -12.603700   7.194610  39.744700  34.425000 -59.847400 -33.232400  -0.004444  -0.002858 -11.616300  -0.000092  -0.003113 -33.930500   7.995340 -11.675100 -28.437400   0.008876  -0.000940 -19.906200   0.000289  -0.009772 -28.813000   1.300200  -2.360580 -43.339600   0.008258  -0.001599 -28.864200   0.002883  -0.004720 -28.739500   1.296620  -2.362650 -40.826900  -0.000447  -0.001728 -27.190700   0.007733  -0.010504 -33.660000   0.539210  -0.809356 -50.496200  -0.000193  -0.000690 -33.630500   0.000249  -0.010707   8.023060  -2.733150  12.084400  45.762300  -0.031095  48.250400 -26.748300 -53.909900  95.979900 -49.700600 -37.885600 -13.187400 -50.376500  45.051700  84.271800  28.283300  -0.083013  -0.116565   9.141700  -0.054285  -0.053335  16.178300   4.598880  15.452200  13.780400   0.011090  -0.018522   9.646310   0.004545  -0.015505  14.607400   2.796180  10.824700  14.911900   0.013888   0.002248   9.931320   0.008557  -0.000881   9.668020   1.591910   9.992770   9.849200   0.034065  -0.025139   6.559600   0.019024  -0.019776  15.203900   1.730550   6.268850  22.940800   0.031779  -0.042622  15.278600   0.010854  -0.039450  -1.021240  27.769100   2.848440  -0.453725   0.038293   3.316780   0.822936  -3.717020   0.653934   0.000000   0.000000  -0.000000   0.587951  19.233800  -2.330530  -3.343530  20.645300 -11.030600   3.660610 -13.829300  -3.816640   0.000000   0.000000   0.000000
